<svg xmlns="http://www.w3.org/2000/svg" width="250.728" height="513.001" viewBox="0 0 250.728 513.001"><g transform="translate(-157.716 -184.969)"><path d="M181.645,184.974h0a21.006,21.006,0,0,1,21,21.008V314.075a21,21,0,0,1-21,21h0a21,21,0,0,1-21-21V205.982A21.006,21.006,0,0,1,181.645,184.974Z" transform="translate(0.945 0.014)" fill="#e93842" opacity="0.7"/><path d="M209.609,195.479h0a21.006,21.006,0,0,1,21,21.008v60.966a21,21,0,0,1-21,21h0a21,21,0,0,1-21-21V216.487A21.006,21.006,0,0,1,209.609,195.479Z" transform="translate(98.431 36.636)" fill="#fda900" opacity="0.8"/><path d="M226.721,185.045h0a21.006,21.006,0,0,1,21,21.008V313.827a21,21,0,0,1-21,21h0a21,21,0,0,1-21-21V206.053A21.006,21.006,0,0,1,226.721,185.045Z" transform="translate(158.085 0.262)" fill="#e93842" opacity="0.7"/><path d="M270.127,197.149h0a21,21,0,0,1,21,21.008v53.474a21,21,0,0,1-21,21h0a21,21,0,0,1-21-21V218.157A21,21,0,0,1,270.127,197.149Z" transform="translate(38.26 223.66)" fill="#e93842" opacity="0.7"/><path d="M270.127,185.045h0a21,21,0,0,1,21,21h0a21,21,0,0,1-21,21h0a21,21,0,0,1-21-21h0A21,21,0,0,1,270.127,185.045Z" transform="translate(38.26 181.465)" fill="#e93842" opacity="0.7"/><path d="M315.62,184.974h0a21.006,21.006,0,0,1,21,21.008V314.075a21,21,0,0,1-21,21h0a21,21,0,0,1-21-21V205.982A21.006,21.006,0,0,1,315.62,184.974Z" transform="translate(-7.222 362.42)" fill="#e93842" opacity="0.7"/><path d="M333.146,191.306h0a21,21,0,0,1,21,21.008V292a21,21,0,0,1-21,21h0a21,21,0,0,1-20.995-21V212.314A21,21,0,0,1,333.146,191.306Z" transform="translate(53.889 384.494)" fill="#0083bc" opacity="0.8"/><path d="M303.057,189.14h0a21,21,0,0,1,29.38,4.378l79.31,107.065a21.006,21.006,0,0,1-4.369,29.38h0A21.01,21.01,0,0,1,378,325.58L298.693,218.519A21,21,0,0,1,303.057,189.14Z" transform="translate(-7.431 362.557)" fill="#fda900" opacity="0.8"/><path d="M273.346,205.969h0a21.006,21.006,0,0,1-21.008,21H181.654a21.006,21.006,0,0,1-21.008-21h0a21.006,21.006,0,0,1,21.008-21h70.683A21.006,21.006,0,0,1,273.346,205.969Z" transform="translate(0.945 0)" fill="#0083bc" opacity="0.8"/><path d="M241.279,280.609h0a21,21,0,0,1-21-21.008V206.032a21,21,0,0,1,21-21.008h0a21,21,0,0,1,21,21.008V259.6A21,21,0,0,1,241.279,280.609Z" transform="translate(-62.308 181.391)" fill="#0083bc" opacity="0.8"/><path d="M255.469,292.636h0a21,21,0,0,1-21-21V218.157a21,21,0,0,1,21-21.008h0a21,21,0,0,1,21,21.008v53.474A21,21,0,0,1,255.469,292.636Z" transform="translate(-12.84 223.66)" fill="#0083bc" opacity="0.8"/><path d="M308.447,230.18h0a21.006,21.006,0,0,1-21.008,21H209.622a21.006,21.006,0,0,1-21.008-21h0a21.006,21.006,0,0,1,21.008-21h77.816A21.006,21.006,0,0,1,308.447,230.18Z" transform="translate(98.445 84.402)" fill="#0083bc" opacity="0.8"/><path d="M285.152,184.974h0a21.006,21.006,0,0,1,21,21.008V314.075a21,21,0,0,1-21,21h0a21,21,0,0,1-21-21V205.982A21.006,21.006,0,0,1,285.152,184.974Z" transform="translate(-106.437 362.42)" fill="#e93842" opacity="0.7"/><path d="M300.6,184.974h0a21,21,0,0,1,21,21.008V314.075a21,21,0,0,1-21,21h0a21,21,0,0,1-21-21V205.982A21.006,21.006,0,0,1,300.6,184.974Z" transform="translate(-57.601 362.42)" fill="#e93842" opacity="0.7"/><path d="M370.426,230.176h0c0,11.6-8.871,21-19.81,21H283.963c-10.94,0-19.81-9.4-19.81-21h0c0-11.6,8.871-21,19.81-21h66.652C361.555,209.177,370.426,218.58,370.426,230.176Z" transform="translate(-106.437 446.795)" fill="#fda900" opacity="0.8"/><path d="M370.426,205.969h0c0,11.6-8.871,21-19.81,21H283.963c-10.94,0-19.81-9.4-19.81-21h0c0-11.6,8.871-21,19.81-21h66.652C361.555,184.97,370.426,194.373,370.426,205.969Z" transform="translate(-106.437 362.406)" fill="#0083bc" opacity="0.8"/><rect width="80.38" height="41.997" rx="20.998" transform="translate(161.593 243.2)" fill="#fda900" opacity="0.8"/><path d="M325.538,206.011h0a21,21,0,0,1-21.008,20.995H241.338a21,21,0,0,1-21.008-20.995h0a21,21,0,0,1,21.008-21H304.53A21,21,0,0,1,325.538,206.011Z" transform="translate(-62.133 181.35)" fill="#fda900" opacity="0.8"/><path d="M325.538,218.114h0a21.006,21.006,0,0,1-21.008,21H241.338a21,21,0,0,1-21.008-21h0a21,21,0,0,1,21.008-21H304.53A21.006,21.006,0,0,1,325.538,218.114Z" transform="translate(-62.133 223.542)" fill="#e93842" opacity="0.7"/><path d="M325.538,230.218h0a21.006,21.006,0,0,1-21.008,21H241.338a21,21,0,0,1-21.008-21h0a21,21,0,0,1,21.008-21H304.53A21.006,21.006,0,0,1,325.538,230.218Z" transform="translate(-62.133 265.738)" fill="#fda900" opacity="0.8"/></g></svg>